# xmcd
#
# Track frame offsets:
#	150
#	21630
#	38495
#	64075
#	91420
#	113845
#	145055
#	161980
#	186792
#	216120
#	237620
#	276627
#
# Disc length: 3943 seconds
#
# Revision: 0
# Processed by: cddbd v1.5.1PL2 Copyright (c) Steve Scherf et al.
# Submitted via: EasyCDDAExtractor 7.5.0.1
#
DISCID=b70f650c
DTITLE=Doug Duffey - Rectified Spirit
DYEAR=1997
DGENRE=R&B
TTITLE0=hoodoo you love
TTITLE1=piece of the action
TTITLE2=somethin' funky goin on
TTITLE3=new orleans rain
TTITLE4=hard times
TTITLE5=rectified spirit
TTITLE6=love comes
TTITLE7=love and hate
TTITLE8=you bring me joy
TTITLE9=victim of the blues
TTITLE10=down in mississippi
TTITLE11=if it ain't one thing
EXTD=
EXTT0=
EXTT1=
EXTT2=
EXTT3=
EXTT4=
EXTT5=
EXTT6=
EXTT7=
EXTT8=
EXTT9=
EXTT10=
EXTT11=
PLAYORDER=
